# xmcd
#
# Track frame offsets: 
#        150
#        15595
#        28473
#        42275
#        59921
#        77379
#        91587
#        108481
#        123064
#        136376
#
# Disc length: 1993 seconds
#
# Revision: 0
# Processed by: cddbd v1.5.2PL0 Copyright (c) Steve Scherf et al.
# Submitted via: ExactAudioCopy v0.99pb5
#
DISCID=7b07c70a
DTITLE=the Piedmont Boys - All on Red
DYEAR=2011
DGENRE=Country
TTITLE0=Bettin' on Bein' Right
TTITLE1=Free Spirit
TTITLE2=35
TTITLE3=Gypsy Soul
TTITLE4=Hell, Danielle
TTITLE5=White Line Mercy
TTITLE6=Blood Brothers
TTITLE7=Fishing Trip (Remastered)
TTITLE8=Bocephus (Live)
TTITLE9=Rice Beans (Live)
EXTD=
EXTT0=
EXTT1=
EXTT2=
EXTT3=
EXTT4=
EXTT5=
EXTT6=
EXTT7=
EXTT8=
EXTT9=
PLAYORDER=
